<svg xmlns="http://www.w3.org/2000/svg" xmlns:xlink="http://www.w3.org/1999/xlink" aria-hidden="true" role="img" class="iconify iconify--logos" width="35.93" height="32" preserveAspectRatio="xMidYMid meet" viewBox="0 0 256 228"><circle cx="128" cy="128" r="13" fill="#61DAFB"></circle><path d="M166.642 77.416c-3.504-8.04-7.872-15.056-13.104-21.056c-5.224-5.992-11.4-11.168-18.528-15.528c-7.12-4.36-14.896-7.824-23.328-10.4c-8.424-2.576-17.2-3.864-26.328-3.864c-9.112 0-17.888 1.288-26.328 3.864c-8.424 2.576-16.2 6.04-23.328 10.4c-7.12 4.36-13.296 9.536-18.528 15.528c-5.224 6-9.592 12.992-13.104 21.056c-3.52 8.064-5.28 16.672-5.28 25.824c0 9.152 1.76 17.76 5.28 25.824c3.52 8.064 7.88 15.056 13.104 21.056c5.232 5.992 11.408 11.168 18.528 15.528c7.128 4.36 14.896 7.824 23.328 10.4c8.44 2.576 17.216 3.864 26.328 3.864c9.128 0 17.904-1.288 26.328-3.864c8.432-2.576 16.208-6.04 23.328-10.4c7.128-4.36 13.304-9.536 18.528-15.528c5.24-6 9.608-12.992 13.104-21.056c3.52-8.064 5.28-16.672 5.28-25.824c0-9.152-1.76-17.76-5.28-25.824Zm-52.272 67.2c-6.224 0-11.52-1.52-15.888-4.56c-4.352-3.04-7.824-7.12-10.416-12.24c-2.592-5.12-3.888-10.992-3.888-17.616c0-6.624 1.296-12.496 3.888-17.616c2.592-5.12 6.064-9.2 10.416-12.24c4.368-3.04 9.664-4.56 15.888-4.56c6.24 0 11.536 1.52 15.888 4.56c4.368 3.04 7.84 7.12 10.416 12.24c2.592 5.12 3.888 10.992 3.888 17.616c0 6.624-1.296 12.496-3.888 17.616c-2.576 5.12-6.048 9.2-10.416 12.24c-4.352 3.04-9.648 4.56-15.888 4.56Z" fill="#61DAFB"></path><path d="M207.05 142.784c-3.504-8.04-7.872-15.056-13.104-21.056c-5.224-5.992-11.4-11.168-18.528-15.528c-7.12-4.36-14.896-7.824-23.328-10.4c-8.424-2.576-17.2-3.864-26.328-3.864c-9.112 0-17.888 1.288-26.328 3.864c-8.424 2.576-16.2 6.04-23.328 10.4c-7.12 4.36-13.296 9.536-18.528 15.528c-5.224 6-9.592 12.992-13.104 21.056c-3.52 8.064-5.28 16.672-5.28 25.824c0 9.152 1.76 17.76 5.28 25.824c3.52 8.064 7.88 15.056 13.104 21.056c5.232 5.992 11.408 11.168 18.528 15.528c7.128 4.36 14.896 7.824 23.328 10.4c8.44 2.576 17.216 3.864 26.328 3.864c9.128 0 17.904-1.288 26.328-3.864c8.432-2.576 16.208-6.04 23.328-10.4c7.128-4.36 13.304-9.536 18.528-15.528c5.24-6 9.608-12.992 13.104-21.056c3.52-8.064 5.28-16.672 5.28-25.824c0-9.152-1.76-17.76-5.28-25.824Zm-52.272 67.2c-6.224 0-11.52-1.52-15.888-4.56c-4.352-3.04-7.824-7.12-10.416-12.24c-2.592-5.12-3.888-10.992-3.888-17.616c0-6.624 1.296-12.496 3.888-17.616c2.592-5.12 6.064-9.2 10.416-12.24c4.368-3.04 9.664-4.56 15.888-4.56c6.24 0 11.536 1.52 15.888 4.56c4.368 3.04 7.84 7.12 10.416 12.24c2.592 5.12 3.888 10.992 3.888 17.616c0 6.624-1.296 12.496-3.888 17.616c-2.576 5.12-6.048 9.2-10.416 12.24c-4.352 3.04-9.648 4.56-15.888 4.56Z" fill="#61DAFB"></path><path d="M56.722 142.784c-3.504-8.04-7.872-15.056-13.104-21.056c-5.224-5.992-11.4-11.168-18.528-15.528c-7.12-4.36-14.896-7.824-23.328-10.4c-8.424-2.576-17.2-3.864-26.328-3.864c-9.112 0-17.888 1.288-26.328 3.864c-8.424 2.576-16.2 6.04-23.328 10.4c-7.12 4.36-13.296 9.536-18.528 15.528c-5.224 6-9.592 12.992-13.104 21.056c-3.52 8.064-5.28 16.672-5.28 25.824c0 9.152 1.76 17.76 5.28 25.824c3.52 8.064 7.88 15.056 13.104 21.056c5.232 5.992 11.408 11.168 18.528 15.528c7.128 4.36 14.896 7.824 23.328 10.4c8.44 2.576 17.216 3.864 26.328 3.864c9.128 0 17.904-1.288 26.328-3.864c8.432-2.576 16.208-6.04 23.328-10.4c7.128-4.36 13.304-9.536 18.528-15.528c5.24-6 9.608-12.992 13.104-21.056c3.52-8.064 5.28-16.672 5.28-25.824c0-9.152-1.76-17.76-5.28-25.824Zm-52.272 67.2c-6.224 0-11.52-1.52-15.888-4.56c-4.352-3.04-7.824-7.12-10.416-12.24c-2.592-5.12-3.888-10.992-3.888-17.616c0-6.624 1.296-12.496 3.888-17.616c2.592-5.12 6.064-9.2 10.416-12.24c4.368-3.04 9.664-4.56 15.888-4.56c6.24 0 11.536 1.52 15.888 4.56c4.368 3.04 7.84 7.12 10.416 12.24c2.592 5.12 3.888 10.992 3.888 17.616c0 6.624-1.296 12.496-3.888 17.616c-2.576 5.12-6.048 9.2-10.416 12.24c-4.352 3.04-9.648 4.56-15.888 4.56Z" fill="#61DAFB"></path></svg>